<svg width="274" height="348" viewBox="0 0 274 348" fill="none" xmlns="http://www.w3.org/2000/svg">
  <g clip-path="url(#clip0_120_8766)">
  <path d="M0 0H75.9534V24.4337H31.8696V49.9278H63.2076V74.3615H31.8696V126.058H0V0Z" fill="white"/>
  <path d="M42.2812 84.989H74.1508V211.047H42.2812V84.989Z" fill="white"/>
  <path d="M211.543 142.353V184.136L85.4844 211.047V178.823L110.978 173.865V144.653L85.4844 139.164V112.784L211.543 142.35V142.353ZM133.289 149.08V169.441L184.631 160.236V159.882L133.289 149.083V149.08Z" fill="white"/>
  <path d="M85.4844 221.495H117.531L132.403 309.311H132.757L154.002 221.495H180.559L146.034 347.553H113.636L85.4844 221.495Z" fill="white"/>
  <path d="M85.3711 0.13208H100.063V4.85751H91.5351V9.78921H97.5959V14.5146H91.5351V24.5129H85.3711V0.13208Z" fill="white"/>
  <path d="M105.985 17.1512C105.985 18.6585 106.295 21.2261 108.484 21.2261C109.82 21.2261 110.949 20.2662 111.293 18.8621L115.026 20.2319C114.786 21.0199 113.075 24.9229 108.143 24.9229C102.836 24.9229 100.438 20.6417 100.438 15.8819C100.438 11.1221 102.971 6.90967 108.074 6.90967C113.178 6.90967 115.267 11.4976 115.267 15.985V17.1486H105.988L105.985 17.1512ZM110.129 13.8643C110.095 12.2539 109.957 10.4055 108.04 10.4055C106.464 10.4055 105.985 12.2539 105.985 13.8643H110.129Z" fill="white"/>
  <path d="M125.604 12.5974C125.091 11.5688 124.372 10.4053 123.002 10.4053C121.873 10.4053 121.357 10.9527 121.357 11.5C121.357 14.274 129.782 13.3828 129.782 19.0681C129.782 22.7676 126.974 24.9254 122.899 24.9254C119.065 24.9254 116.563 22.8707 115.672 20.0624L119.919 18.727C120.569 20.028 121.288 21.2259 122.899 21.2259C123.925 21.2259 124.644 20.7129 124.644 19.9593C124.644 17.0822 116.219 18.214 116.219 12.2537C116.219 10.4397 117.999 6.91211 122.896 6.91211C125.67 6.91211 128.478 8.21312 129.47 11.5688L125.601 12.5974H125.604Z" fill="white"/>
  <path d="M131.597 11.2278H129.336V7.3248H131.597V1.1582H137.145V7.32216H140.194V11.2252H137.145V18.5183C137.145 19.7162 137.145 20.6073 138.924 20.6073C139.369 20.6073 139.815 20.5386 140.191 20.4354V24.476C139.096 24.7854 137.486 24.9202 136.288 24.9202C133.342 24.9202 131.597 23.6536 131.597 20.5703V11.2226V11.2278Z" fill="white"/>
  <path d="M141.461 0.13208H147.009V5.06377H141.461V0.13208ZM141.461 7.32468H147.009V24.5155H141.461V7.32204V7.32468Z" fill="white"/>
  <path d="M147.727 7.32227H153.481L155.432 16.67H155.501L157.865 7.32227H162.249L156.736 24.5131H152.558L147.729 7.32227H147.727Z" fill="white"/>
  <path d="M171.081 12.4256C171.081 11.3969 170.637 10.4053 169.643 10.4053C168.376 10.4053 167.929 11.7063 167.829 12.6662L163 11.6719C163.616 8.28188 166.699 6.91211 169.849 6.91211C173.17 6.91211 176.629 8.35063 176.629 12.1505V21.7389C176.629 23.6904 176.938 24.2722 177.142 24.5128H171.422C171.319 24.0342 171.319 23.4524 171.25 22.9368C170.259 24.1003 168.786 24.9227 167.072 24.9227C164.092 24.9227 162.141 23.0056 162.141 19.6499C162.141 15.0276 167.345 13.6922 171.078 13.5891V12.4256H171.081ZM171.081 16.2598C168.958 16.4661 167.691 16.8416 167.691 19.3749C167.691 20.5728 168.307 21.2233 169.301 21.2233C169.78 21.2233 170.396 20.9139 171.081 20.1285V16.2598Z" fill="white"/>
  <path d="M179.094 0.13208H184.642V24.5155H179.094V0.13208Z" fill="white"/>
  <path d="M85.4688 28.3999H91.6327V52.7834H85.4688V28.3999Z" fill="white"/>
  <path d="M94.4453 35.5927H99.9931V37.888H100.062C101.225 36.1428 102.973 35.1829 104.959 35.1829C107.186 35.1829 108.624 36.6901 108.624 39.0515V52.7836H103.076V40.6276C103.076 39.702 102.767 39.0859 101.741 39.0859C101.159 39.0859 100.681 39.3265 100.303 39.8052L99.9931 40.215V52.7836H94.4453V35.5927Z" fill="white"/>
  <path d="M111.667 39.4957H109.406V35.5927H111.667V29.4287H117.215V35.5927H120.264V39.4957H117.215V46.7888C117.215 47.9867 117.215 48.8778 118.995 48.8778C119.439 48.8778 119.886 48.8091 120.261 48.7059V52.7465C119.167 53.0559 117.556 53.1907 116.358 53.1907C113.412 53.1907 111.667 51.9241 111.667 48.8408V39.4931V39.4957Z" fill="white"/>
  <path d="M126.255 45.419C126.255 46.9263 126.564 49.4939 128.754 49.4939C130.089 49.4939 131.218 48.534 131.562 47.1299L135.296 48.4997C135.055 49.2877 133.344 53.1907 128.413 53.1907C123.105 53.1907 120.707 48.9095 120.707 44.1497C120.707 39.3899 123.24 35.1775 128.344 35.1775C133.447 35.1775 135.536 39.7654 135.536 44.2529V45.4164H126.257L126.255 45.419ZM130.399 42.1321C130.364 40.5217 130.227 38.6733 128.31 38.6733C126.733 38.6733 126.255 40.5217 126.255 42.1321H130.399Z" fill="white"/>
  <path d="M137.182 35.5927H142.627V38.1947H142.696C143.381 36.0369 145.845 35.1802 148.037 35.1802V40.7968C147.284 40.5217 146.564 40.3181 145.776 40.3181C143.928 40.3181 143.346 40.7968 142.728 41.6535V52.7835H137.18V35.5927H137.182Z" fill="white"/>
  <path d="M148.891 35.5927H154.438V37.888H154.507C155.671 36.1428 157.419 35.1829 159.405 35.1829C161.631 35.1829 163.07 36.6901 163.07 39.0515V52.7836H157.522V40.6276C157.522 39.702 157.212 39.0859 156.186 39.0859C155.605 39.0859 155.126 39.3265 154.748 39.8052L154.438 40.215V52.7836H148.891V35.5927Z" fill="white"/>
  <path d="M173.651 40.6936C173.651 39.665 173.207 38.6733 172.213 38.6733C170.946 38.6733 170.499 39.9744 170.399 40.9343L165.57 39.94C166.186 36.5499 169.27 35.1802 172.419 35.1802C175.74 35.1802 179.199 36.6187 179.199 40.4186V50.007C179.199 51.9585 179.509 52.5403 179.712 52.7809H173.993C173.889 52.3023 173.889 51.7205 173.821 51.2049C172.829 52.3684 171.356 53.1908 169.643 53.1908C166.662 53.1908 164.711 51.2736 164.711 47.918C164.711 43.2957 169.915 41.9603 173.649 41.8571V40.6936H173.651ZM173.651 44.5279C171.528 44.7342 170.261 45.1097 170.261 47.6429C170.261 48.8408 170.878 49.4913 171.872 49.4913C172.35 49.4913 172.967 49.182 173.651 48.3966V44.5279Z" fill="white"/>
  <path d="M190.738 41.9947C190.738 41.3098 190.703 40.4874 190.463 39.8369C190.188 39.1521 189.743 38.6734 188.852 38.6734C187.004 38.6734 186.798 40.9343 186.798 44.3588C186.798 48.2274 187.414 49.4967 188.852 49.4967C190.804 49.4967 190.976 47.5108 190.976 46.2098L195.291 46.8259C194.881 51.004 192.483 53.1961 188.442 53.1961C183.442 53.1961 180.84 48.8118 180.84 44.5677C180.84 39.8766 183.442 35.1855 188.683 35.1855C194.572 35.1855 195.463 40.2891 195.463 42H190.738V41.9947Z" fill="white"/>
  <path d="M197.172 28.3999H202.72V33.3316H197.172V28.3999ZM197.172 35.5925H202.72V52.7834H197.172V35.5925Z" fill="white"/>
  <path d="M211.967 35.1802C217.136 35.1802 219.707 38.9801 219.707 44.118C219.707 49.256 217.242 53.1934 211.967 53.1934C206.691 53.1934 204.227 49.4596 204.227 44.118C204.227 38.7765 206.794 35.1802 211.967 35.1802ZM211.967 49.7002C213.336 49.7002 213.952 48.468 213.952 44.118C213.952 40.1462 213.543 38.6734 211.967 38.6734C210.391 38.6734 209.981 40.1462 209.981 44.118C209.981 48.468 210.597 49.7002 211.967 49.7002Z" fill="white"/>
  <path d="M221.352 35.5927H226.899V37.888H226.968C228.132 36.1428 229.88 35.1829 231.865 35.1829C234.092 35.1829 235.531 36.6901 235.531 39.0515V52.7836H229.983V40.6276C229.983 39.702 229.673 39.0859 228.647 39.0859C228.066 39.0859 227.587 39.3265 227.209 39.8052L226.899 40.215V52.7836H221.352V35.5927Z" fill="white"/>
  <path d="M246.108 40.6936C246.108 39.665 245.664 38.6733 244.67 38.6733C243.403 38.6733 242.956 39.9744 242.856 40.9343L238.027 39.94C238.644 36.5499 241.727 35.1802 244.876 35.1802C248.198 35.1802 251.656 36.6187 251.656 40.4186V50.007C251.656 51.9585 251.966 52.5403 252.169 52.7809H246.45C246.346 52.3023 246.346 51.7205 246.278 51.2049C245.286 52.3684 243.813 53.1908 242.1 53.1908C239.119 53.1908 237.168 51.2736 237.168 47.918C237.168 43.2957 242.372 41.9603 246.106 41.8571V40.6936H246.108ZM246.108 44.5279C243.985 44.7342 242.718 45.1097 242.718 47.6429C242.718 48.8408 243.335 49.4913 244.329 49.4913C244.807 49.4913 245.424 49.182 246.108 48.3966V44.5279Z" fill="white"/>
  <path d="M254.121 28.3999H259.669V52.7834H254.121V28.3999Z" fill="white"/>
  <path d="M99.1698 81.0517H93.9313V79.3725H93.8626C92.2178 80.9485 91.2949 81.2553 89.6502 81.2553C86.0195 81.2553 84.3086 77.4554 84.3086 73.1054C84.3086 68.2081 85.644 63.8582 89.9939 63.8582C91.5699 63.8582 92.6303 64.3712 93.6246 65.3654V56.6682H99.1724V81.0517H99.1698ZM93.622 67.7295C93.3126 67.2852 92.6964 66.9415 91.8767 66.9415C89.9939 66.9415 90.0627 70.1596 90.0627 72.1799C90.0627 75.7418 90.1314 77.9684 91.6043 77.9684C92.4267 77.9684 93.2147 77.4554 93.6246 76.6673V67.7295H93.622Z" fill="white"/>
  <path d="M106.634 73.6898C106.634 75.197 106.943 77.7647 109.133 77.7647C110.468 77.7647 111.597 76.8048 111.941 75.4007L115.675 76.7704C115.434 77.5584 113.723 81.4615 108.792 81.4615C103.484 81.4615 101.086 77.1803 101.086 72.4205C101.086 67.6607 103.619 63.4482 108.723 63.4482C113.826 63.4482 115.915 68.0362 115.915 72.5236V73.6871H106.636L106.634 73.6898ZM110.777 70.4029C110.743 68.7924 110.606 66.9441 108.688 66.9441C107.112 66.9441 106.634 68.7924 106.634 70.4029H110.777Z" fill="white"/>
  <path d="M130.329 56.668H138.41L143.614 81.0514H137.382L136.422 76.1197H130.771L129.71 81.0514H124.609L130.329 56.668ZM131.63 71.8042H135.568L133.788 61.872H133.719L131.63 71.8042Z" fill="white"/>
  <path d="M144.44 63.8605H149.885V66.4625H149.954C150.638 64.3048 153.103 63.448 155.295 63.448V69.0646C154.542 68.7896 153.822 68.5859 153.034 68.5859C151.186 68.5859 150.604 69.0646 149.985 69.9213V81.0514H144.438V63.8605H144.44Z" fill="white"/>
  <path d="M156.597 67.7638H154.336V63.8607H156.597V57.6968H162.145V63.8607H165.194V67.7638H162.145V75.0569C162.145 76.2548 162.145 77.1459 163.924 77.1459C164.369 77.1459 164.815 77.0771 165.191 76.974V81.0146C164.096 81.3239 162.486 81.4588 161.288 81.4588C158.342 81.4588 156.597 80.1922 156.597 77.1089V67.7611V67.7638Z" fill="white"/>
  <path d="M171.181 73.6898C171.181 75.197 171.49 77.7647 173.68 77.7647C175.015 77.7647 176.144 76.8048 176.488 75.4007L180.222 76.7704C179.981 77.5584 178.27 81.4615 173.338 81.4615C168.031 81.4615 165.633 77.1803 165.633 72.4205C165.633 67.6607 168.166 63.4482 173.27 63.4482C178.373 63.4482 180.462 68.0362 180.462 72.5236V73.6871H171.183L171.181 73.6898ZM175.324 70.4029C175.29 68.7924 175.152 66.9441 173.235 66.9441C171.659 66.9441 171.181 68.7924 171.181 70.4029H175.324Z" fill="white"/>
  <path d="M190.807 69.1336C190.294 68.1049 189.575 66.9414 188.205 66.9414C187.076 66.9414 186.56 67.4888 186.56 68.0362C186.56 70.8101 194.985 69.9189 194.985 75.6043C194.985 79.3037 192.177 81.4615 188.102 81.4615C184.268 81.4615 181.766 79.4068 180.875 76.5985L185.122 75.2631C185.772 76.5642 186.492 77.7621 188.102 77.7621C189.128 77.7621 189.847 77.249 189.847 76.4954C189.847 73.6184 181.422 74.7502 181.422 68.7898C181.422 66.9758 183.202 63.4482 188.099 63.4482C190.873 63.4482 193.682 64.7493 194.673 68.1049L190.804 69.1336H190.807Z" fill="white"/>
  <path d="M203.406 56.6682H209.605L212.482 73.6528H212.55L216.66 56.6682H221.798L215.121 81.0517H208.854L203.409 56.6682H203.406Z" fill="white"/>
  <path d="M222.48 56.6682H228.028V61.5999H222.48V56.6682ZM222.48 63.8608H228.028V81.0517H222.48V63.8608Z" fill="white"/>
  <path d="M228.742 63.8606H234.496L236.448 73.2083H236.517L238.881 63.8606H243.265L237.751 81.0514H233.573L228.745 63.8606H228.742Z" fill="white"/>
  <path d="M252.101 68.9617C252.101 67.933 251.656 66.9414 250.662 66.9414C249.396 66.9414 248.949 68.2424 248.848 69.2023L244.02 68.2081C244.636 64.818 247.719 63.4482 250.868 63.4482C254.19 63.4482 257.649 64.8868 257.649 68.6867V78.2751C257.649 80.2266 257.958 80.8083 258.162 81.049H252.442C252.339 80.5703 252.339 79.9886 252.27 79.4729C251.278 80.6364 249.805 81.4588 248.092 81.4588C245.112 81.4588 243.16 79.5417 243.16 76.186C243.16 71.5637 248.364 70.2283 252.098 70.1252V68.9617H252.101ZM252.101 72.796C249.977 73.0022 248.711 73.3777 248.711 75.911C248.711 77.1089 249.327 77.7594 250.321 77.7594C250.8 77.7594 251.416 77.45 252.101 76.6647V72.796Z" fill="white"/>
  <path d="M268.948 69.1336C268.435 68.1049 267.715 66.9414 266.346 66.9414C265.217 66.9414 264.701 67.4888 264.701 68.0362C264.701 70.8101 273.126 69.9189 273.126 75.6043C273.126 79.3037 270.318 81.4615 266.243 81.4615C262.408 81.4615 259.907 79.4068 259.016 76.5985L263.262 75.2631C263.913 76.5642 264.632 77.7621 266.243 77.7621C267.269 77.7621 267.988 77.249 267.988 76.4954C267.988 73.6184 259.563 74.7502 259.563 68.7898C259.563 66.9758 261.343 63.4482 266.24 63.4482C269.014 63.4482 271.822 64.7493 272.814 68.1049L268.945 69.1336H268.948Z" fill="white"/>
  <path d="M85.3711 84.936H95.6444C100.095 84.936 102.803 87.4006 102.803 90.7589C102.803 93.7734 100.748 95.9629 98.2147 96.513V96.5817C101.398 97.3697 103.249 99.39 103.249 102.608C103.249 106.717 100.1 109.319 95.2715 109.319H85.3737V84.936H85.3711ZM91.5351 94.5932H93.5553C95.7819 94.5932 96.6386 93.3953 96.6386 91.9568C96.6386 89.6271 95.097 89.2516 93.6928 89.2516H91.5351V94.5932ZM91.5351 104.798H93.796C95.1314 104.798 96.8793 104.216 96.8793 101.714C96.8793 99.9003 95.7845 98.6998 93.796 98.6998H91.5351V104.795V104.798Z" fill="white"/>
  <path d="M111.361 91.7188C116.531 91.7188 119.101 95.5187 119.101 100.657C119.101 105.795 116.637 109.732 111.361 109.732C106.086 109.732 103.621 105.998 103.621 100.657C103.621 95.315 106.189 91.7188 111.361 91.7188ZM111.361 106.239C112.731 106.239 113.347 105.007 113.347 100.657C113.347 96.6848 112.937 95.2119 111.361 95.2119C109.785 95.2119 109.375 96.6848 109.375 100.657C109.375 105.007 109.991 106.239 111.361 106.239Z" fill="white"/>
  <path d="M136.224 95.0745C135.983 94.8338 135.676 94.5958 135.367 94.4583C135.026 94.2864 134.682 94.1833 134.272 94.1833C133.862 94.1833 133.484 94.3552 133.347 94.5588C133.997 95.3124 134.169 96.3728 134.169 97.3671C134.169 100.757 130.435 102.436 127.389 102.436C126.329 102.436 125.644 102.299 125.025 102.161C124.887 102.333 124.443 102.812 124.443 103.156C124.443 104.388 125.95 104.388 127.902 104.388C131.189 104.388 135.608 104.798 135.608 109.113C135.608 112.641 132.149 114.455 127.08 114.455C125.128 114.455 119.102 114.18 119.102 110.893C119.102 109.044 120.781 108.153 122.354 107.878V107.81C120.984 107.365 119.924 106.577 119.924 105.001C119.924 103.322 121.841 102.056 123.28 101.714V101.646C121.122 100.72 120.061 99.078 120.061 97.1265C120.061 93.2234 124.274 91.7161 127.082 91.7161C128.727 91.7161 130.541 92.0916 131.842 92.9484C132.252 91.9885 134.582 90.6875 136.226 90.6875V95.0718L136.224 95.0745ZM123.417 110.073C123.417 111.477 125.985 111.58 127.082 111.58C128.383 111.58 130.885 111.58 130.885 110.073C130.885 108.566 128.111 108.497 127.082 108.497C126.294 108.497 123.417 108.497 123.417 110.073ZM125.197 97.2322C125.197 98.4645 125.641 99.9718 127.08 99.9718C128.621 99.9718 129.031 98.3957 129.031 96.9916C129.031 95.5875 128.518 94.1833 127.08 94.1833C125.538 94.1833 125.197 95.9286 125.197 97.2322Z" fill="white"/>
  <path d="M143.654 91.7188C148.824 91.7188 151.394 95.5187 151.394 100.657C151.394 105.795 148.93 109.732 143.654 109.732C138.379 109.732 135.914 105.998 135.914 100.657C135.914 95.315 138.482 91.7188 143.654 91.7188ZM143.654 106.239C145.024 106.239 145.64 105.007 145.64 100.657C145.64 96.6848 145.23 95.2119 143.654 95.2119C142.078 95.2119 141.668 96.6848 141.668 100.657C141.668 105.007 142.284 106.239 143.654 106.239Z" fill="white"/>
  <path d="M153.48 96.0318H151.219V92.1288H153.48V85.9648H159.027V92.1288H162.076V96.0318H159.027V103.325C159.027 104.523 159.027 105.414 160.807 105.414C161.251 105.414 161.698 105.345 162.074 105.242V109.283C160.979 109.592 159.369 109.727 158.171 109.727C155.225 109.727 153.48 108.46 153.48 105.377V96.0292V96.0318Z" fill="white"/>
  <path d="M171.456 97.2322C171.456 96.2035 171.012 95.2119 170.018 95.2119C168.751 95.2119 168.304 96.5129 168.204 97.4728L163.375 96.4785C163.991 93.0885 167.074 91.7187 170.224 91.7187C173.545 91.7187 177.004 93.1572 177.004 96.9572V106.546C177.004 108.497 177.313 109.079 177.517 109.319H171.797C171.694 108.841 171.694 108.259 171.625 107.743C170.634 108.907 169.161 109.729 167.447 109.729C164.467 109.729 162.516 107.812 162.516 104.457C162.516 99.8342 167.72 98.4988 171.453 98.3957V97.2322H171.456ZM170.84 89.4578H167.416L170.599 84.5261H175.838L170.837 89.4578H170.84ZM171.456 101.066C169.333 101.273 168.066 101.648 168.066 104.182C168.066 105.379 168.682 106.03 169.676 106.03C170.155 106.03 170.771 105.72 171.456 104.935V101.066Z" fill="white"/>
  <path d="M187.688 105.141C190.29 102.777 198.439 95.9286 198.439 91.9224C198.439 90.587 197.858 89.3204 196.35 89.3204C194.502 89.3204 193.783 91.2719 193.405 92.7448L188.132 91.4094C189.192 87.197 192.582 84.595 196.898 84.595C201.213 84.595 204.603 86.8903 204.603 91.4438C204.603 97.2323 198.336 100.929 194.536 104.115V104.184H204.297V109.322H187.688V105.144V105.141Z" fill="white"/>
  <path d="M214.156 84.595C221.142 84.595 222.718 90.9308 222.718 97.1291C222.718 103.944 220.32 109.663 214.156 109.663C207.17 109.663 205.594 103.944 205.594 97.1291C205.594 90.9308 207.17 84.595 214.156 84.595ZM211.964 100.826C211.964 104.56 212.752 105.551 214.156 105.551C215.56 105.551 216.348 104.557 216.348 100.826V93.4297C216.348 89.6959 215.56 88.7043 214.156 88.7043C212.752 88.7043 211.964 89.6985 211.964 93.4297V100.826Z" fill="white"/>
  <path d="M223.711 105.141C226.313 102.777 234.463 95.9286 234.463 91.9224C234.463 90.587 233.881 89.3204 232.374 89.3204C230.525 89.3204 229.806 91.2719 229.428 92.7448L224.155 91.4094C225.216 87.197 228.606 84.595 232.921 84.595C237.237 84.595 240.627 86.8903 240.627 91.4438C240.627 97.2323 234.36 100.929 230.56 104.115V104.184H240.32V109.322H223.711V105.144V105.141Z" fill="white"/>
  <path d="M250.043 103.362H241.414V99.4588L250.111 84.9387H256.035V99.4588H258.946V103.362H256V109.32H250.043V103.362ZM250.283 91.5126H250.214L245.73 99.4561H250.283V91.5126Z" fill="white"/>
  </g>
  <defs>
  <clipPath id="clip0_120_8766">
  <rect width="273.123" height="347.553" fill="white"/>
  </clipPath>
  </defs>
  </svg>
  