<svg width="193" height="259" viewBox="0 0 193 259" fill="none" xmlns="http://www.w3.org/2000/svg">
<path d="M63.5117 0.759766H74.4017V4.26978H68.0817V7.91977H72.5717V11.4298H68.0817V18.8398H63.5117V0.759766Z" fill="white"/>
<path d="M78.7897 13.3799C78.7897 14.4999 79.0197 16.3999 80.6397 16.3999C81.6297 16.3999 82.4697 15.6899 82.7197 14.6499L85.4897 15.6699C85.3097 16.2499 84.0397 19.1499 80.3897 19.1499C76.4497 19.1499 74.6797 15.9799 74.6797 12.4499C74.6797 8.91992 76.5597 5.79993 80.3397 5.79993C84.1197 5.79993 85.6697 9.19992 85.6697 12.5299V13.3899H78.7897V13.3799ZM81.8597 10.9399C81.8297 9.74993 81.7297 8.37993 80.3097 8.37993C79.1397 8.37993 78.7897 9.74993 78.7897 10.9399H81.8597Z" fill="white"/>
<path d="M93.327 10.0099C92.947 9.24992 92.417 8.38992 91.397 8.38992C90.557 8.38992 90.177 8.79992 90.177 9.19992C90.177 11.2599 96.427 10.5999 96.427 14.8099C96.427 17.5499 94.347 19.1499 91.317 19.1499C88.477 19.1499 86.627 17.6299 85.957 15.5399L89.107 14.5499C89.587 15.5099 90.127 16.3999 91.317 16.3999C92.077 16.3999 92.617 16.0199 92.617 15.4599C92.617 13.3299 86.367 14.1599 86.367 9.74992C86.367 8.39992 87.687 5.78992 91.317 5.78992C93.377 5.78992 95.4571 6.74993 96.1971 9.23993L93.327 9.99992V10.0099Z" fill="white"/>
<path d="M97.7676 8.98993H96.0977V6.09993H97.7676V1.52992H101.878V6.09993H104.138V8.98993H101.878V14.3999C101.878 15.2899 101.878 15.9499 103.198 15.9499C103.528 15.9499 103.858 15.8999 104.138 15.8199V18.8199C103.328 19.0499 102.128 19.1499 101.248 19.1499C99.0677 19.1499 97.7676 18.2099 97.7676 15.9199V8.98993Z" fill="white"/>
<path d="M105.078 0.769928H109.188V4.41992H105.078V0.769928ZM105.078 6.09993H109.188V18.8499H105.078V6.09993Z" fill="white"/>
<path d="M109.719 6.09993H113.989L115.439 13.0299H115.489L117.239 6.09993H120.489L116.399 18.8399H113.299L109.719 6.09993Z" fill="white"/>
<path d="M127.038 9.87993C127.038 9.11993 126.708 8.37993 125.968 8.37993C125.028 8.37993 124.698 9.33992 124.618 10.0599L121.038 9.31993C121.498 6.80993 123.778 5.78992 126.118 5.78992C128.578 5.78992 131.148 6.85992 131.148 9.66992V16.7799C131.148 18.2299 131.378 18.6599 131.528 18.8399H127.288C127.208 18.4799 127.208 18.0499 127.158 17.6699C126.418 18.5299 125.328 19.1399 124.058 19.1399C121.848 19.1399 120.398 17.7199 120.398 15.2299C120.398 11.7999 124.258 10.8099 127.028 10.7399V9.87993H127.038ZM127.038 12.7199C125.458 12.8699 124.528 13.1499 124.528 15.0299C124.528 15.9199 124.988 16.3999 125.718 16.3999C126.078 16.3999 126.528 16.1699 127.038 15.5899V12.7199Z" fill="white"/>
<path d="M137.079 0.769928H132.969V18.8499H137.079V0.769928Z" fill="white"/>
<path d="M68.1599 21.7199H63.5898V39.7999H68.1599V21.7199Z" fill="white"/>
<path d="M70.2365 27.0499H74.3466V28.7499H74.3965C75.2565 27.4499 76.5566 26.7399 78.0266 26.7399C79.6766 26.7399 80.7365 27.8599 80.7365 29.6099V39.7899H76.6266V30.7699C76.6266 30.0899 76.3966 29.6299 75.6366 29.6299C75.2066 29.6299 74.8466 29.8099 74.5666 30.1599L74.3365 30.4599V39.7799H70.2266V27.0299L70.2365 27.0499Z" fill="white"/>
<path d="M82.9981 29.9399H81.3281V27.0499H82.9981V22.4799H87.1081V27.0499H89.3681V29.9399H87.1081V35.3499C87.1081 36.2399 87.1081 36.8999 88.4281 36.8999C88.7581 36.8999 89.0881 36.8499 89.3681 36.7699V39.7699C88.5581 39.9999 87.3581 40.0999 86.4781 40.0999C84.2981 40.0999 82.9981 39.1599 82.9981 36.8799V29.9499V29.9399Z" fill="white"/>
<path d="M93.8075 34.3299C93.8075 35.4499 94.0375 37.3499 95.6575 37.3499C96.6475 37.3499 97.4875 36.6399 97.7375 35.5999L100.508 36.6199C100.328 37.1999 99.0575 40.0999 95.3975 40.0999C91.4575 40.0999 89.6875 36.9299 89.6875 33.3999C89.6875 29.8699 91.5675 26.7499 95.3475 26.7499C99.1275 26.7499 100.677 30.1499 100.677 33.4799V34.3399H93.7975L93.8075 34.3299ZM96.8775 31.8899C96.8475 30.6999 96.7475 29.3299 95.3275 29.3299C94.1575 29.3299 93.8075 30.6999 93.8075 31.8899H96.8775Z" fill="white"/>
<path d="M101.91 27.0499H105.95V28.9799H106C106.51 27.3799 108.34 26.7499 109.96 26.7499V30.9099C109.4 30.7099 108.87 30.5499 108.28 30.5499C106.91 30.5499 106.48 30.9099 106.02 31.5399V39.7899H101.91V27.0399V27.0499Z" fill="white"/>
<path d="M110.588 27.0499H114.698V28.7499H114.748C115.608 27.4499 116.908 26.7399 118.378 26.7399C120.028 26.7399 121.088 27.8599 121.088 29.6099V39.7899H116.978V30.7699C116.978 30.0899 116.748 29.6299 115.988 29.6299C115.558 29.6299 115.198 29.8099 114.918 30.1599L114.688 30.4599V39.7799H110.578V27.0299L110.588 27.0499Z" fill="white"/>
<path d="M128.937 30.8299C128.937 30.0699 128.607 29.3299 127.867 29.3299C126.927 29.3299 126.597 30.2999 126.517 31.0099L122.937 30.2699C123.397 27.7599 125.677 26.7399 128.017 26.7399C130.477 26.7399 133.047 27.8099 133.047 30.6299V37.7399C133.047 39.1899 133.277 39.6199 133.427 39.7999H129.187C129.107 39.4499 129.107 39.0099 129.057 38.6299C128.317 39.4899 127.227 40.0999 125.957 40.0999C123.747 40.0999 122.297 38.6799 122.297 36.1899C122.297 32.7599 126.157 31.7699 128.927 31.6999V30.8299H128.937ZM128.937 33.6799C127.357 33.8299 126.427 34.1099 126.427 35.9899C126.427 36.8799 126.887 37.3599 127.617 37.3599C127.977 37.3599 128.427 37.1299 128.937 36.5499V33.6799Z" fill="white"/>
<path d="M141.598 31.7999C141.598 31.2899 141.578 30.6799 141.398 30.1999C141.198 29.6899 140.858 29.3299 140.208 29.3299C138.838 29.3299 138.688 31.0099 138.688 33.5499C138.688 36.4199 139.148 37.3599 140.208 37.3599C141.658 37.3599 141.778 35.8899 141.778 34.9199L144.978 35.3799C144.678 38.4799 142.898 40.0999 139.898 40.0999C136.188 40.0999 134.258 36.8499 134.258 33.6999C134.258 30.2199 136.188 26.7399 140.068 26.7399C144.438 26.7399 145.098 30.5199 145.098 31.7899H141.598V31.7999Z" fill="white"/>
<path d="M146.367 21.7199H150.477V25.3799H146.367V21.7199ZM146.367 27.0499H150.477V39.7999H146.367V27.0499Z" fill="white"/>
<path d="M157.338 26.7399C161.168 26.7399 163.078 29.5599 163.078 33.3699C163.078 37.1799 161.248 40.0999 157.338 40.0999C153.428 40.0999 151.598 37.3299 151.598 33.3699C151.598 29.4099 153.498 26.7399 157.338 26.7399ZM157.338 37.5099C158.358 37.5099 158.808 36.5899 158.808 33.3699C158.808 30.4199 158.498 29.3299 157.338 29.3299C156.178 29.3299 155.868 30.4199 155.868 33.3699C155.868 36.5899 156.328 37.5099 157.338 37.5099Z" fill="white"/>
<path d="M164.287 27.0499H168.397V28.7499H168.447C169.307 27.4499 170.607 26.7399 172.077 26.7399C173.727 26.7399 174.787 27.8599 174.787 29.6099V39.7899H170.677V30.7699C170.677 30.0899 170.447 29.6299 169.687 29.6299C169.257 29.6299 168.897 29.8099 168.617 30.1599L168.387 30.4599V39.7799H164.277V27.0299L164.287 27.0499Z" fill="white"/>
<path d="M182.64 30.8299C182.64 30.0699 182.31 29.3299 181.57 29.3299C180.63 29.3299 180.3 30.2999 180.22 31.0099L176.64 30.2699C177.1 27.7599 179.38 26.7399 181.72 26.7399C184.18 26.7399 186.75 27.8099 186.75 30.6299V37.7399C186.75 39.1899 186.98 39.6199 187.13 39.7999H182.89C182.81 39.4499 182.81 39.0099 182.76 38.6299C182.02 39.4899 180.93 40.0999 179.66 40.0999C177.45 40.0999 176 38.6799 176 36.1899C176 32.7599 179.86 31.7699 182.63 31.6999V30.8299H182.64ZM182.64 33.6799C181.06 33.8299 180.13 34.1099 180.13 35.9899C180.13 36.8799 180.59 37.3599 181.32 37.3599C181.68 37.3599 182.13 37.1299 182.64 36.5499V33.6799Z" fill="white"/>
<path d="M192.688 21.7199H188.578V39.7999H192.688V21.7199Z" fill="white"/>
<path d="M73.7387 60.7399H69.8488V59.4999H69.7987C68.5787 60.6699 67.8987 60.8999 66.6787 60.8999C63.9887 60.8999 62.7188 58.0799 62.7188 54.8599C62.7188 51.2299 63.7087 48.0099 66.9287 48.0099C68.0987 48.0099 68.8887 48.3899 69.6187 49.1299V42.6799H73.7387V60.7599V60.7399ZM69.6187 50.8599C69.3887 50.5299 68.9388 50.2799 68.3288 50.2799C66.9288 50.2799 66.9888 52.6699 66.9888 54.1599C66.9888 56.7999 67.0388 58.4499 68.1288 58.4499C68.7388 58.4499 69.3188 58.0699 69.6288 57.4799V50.8499L69.6187 50.8599Z" fill="white"/>
<path d="M79.2684 55.2799C79.2684 56.3999 79.4984 58.2999 81.1184 58.2999C82.1084 58.2999 82.9485 57.5899 83.1985 56.5499L85.9684 57.5699C85.7884 58.1499 84.5184 61.0499 80.8584 61.0499C76.9184 61.0499 75.1484 57.8799 75.1484 54.3499C75.1484 50.8199 77.0284 47.6999 80.8084 47.6999C84.5884 47.6999 86.1385 51.0999 86.1385 54.4299V55.2899H79.2585L79.2684 55.2799ZM82.3384 52.8399C82.3084 51.6499 82.2085 50.2799 80.7885 50.2799C79.6185 50.2799 79.2684 51.6499 79.2684 52.8399H82.3384Z" fill="white"/>
<path d="M96.8298 42.6599H102.82L106.68 60.7399H102.06L101.35 57.0799H97.1599L96.3698 60.7399H92.5898L96.8298 42.6599ZM97.7899 53.8799H100.71L99.3899 46.5199H99.3398L97.7899 53.8799Z" fill="white"/>
<path d="M107.289 47.9999H111.329V49.9299H111.379C111.889 48.3299 113.719 47.6999 115.339 47.6999V51.8599C114.779 51.6599 114.249 51.4999 113.659 51.4999C112.289 51.4999 111.859 51.8599 111.399 52.4899V60.7399H107.289V47.9899V47.9999Z" fill="white"/>
<path d="M116.299 50.8899H114.629V47.9999H116.299V43.4299H120.409V47.9999H122.669V50.8899H120.409V56.2999C120.409 57.1899 120.409 57.8499 121.729 57.8499C122.059 57.8499 122.389 57.7999 122.669 57.7199V60.7199C121.859 60.9499 120.659 61.0499 119.779 61.0499C117.599 61.0499 116.299 60.1099 116.299 57.8299V50.8999V50.8899Z" fill="white"/>
<path d="M127.108 55.2799C127.108 56.3999 127.338 58.2999 128.958 58.2999C129.948 58.2999 130.788 57.5899 131.038 56.5499L133.808 57.5699C133.628 58.1499 132.358 61.0499 128.698 61.0499C124.758 61.0499 122.988 57.8799 122.988 54.3499C122.988 50.8199 124.868 47.6999 128.648 47.6999C132.428 47.6999 133.978 51.0999 133.978 54.4299V55.2899H127.098L127.108 55.2799ZM130.178 52.8399C130.148 51.6499 130.048 50.2799 128.628 50.2799C127.458 50.2799 127.108 51.6499 127.108 52.8399H130.178Z" fill="white"/>
<path d="M141.647 51.9099C141.267 51.1499 140.737 50.2899 139.717 50.2899C138.877 50.2899 138.497 50.6999 138.497 51.0999C138.497 53.1599 144.747 52.4999 144.747 56.7099C144.747 59.4499 142.667 61.0499 139.637 61.0499C136.797 61.0499 134.947 59.5299 134.277 57.4499L137.427 56.4599C137.907 57.4199 138.447 58.3099 139.637 58.3099C140.397 58.3099 140.937 57.9299 140.937 57.3699C140.937 55.2399 134.687 56.0799 134.687 51.6599C134.687 50.3199 136.007 47.6999 139.637 47.6999C141.697 47.6999 143.777 48.6599 144.517 51.1499L141.647 51.9099Z" fill="white"/>
<path d="M62.1094 63.6099H66.7094L68.8394 76.2099H68.8894L71.9394 63.6099H75.7494L70.7994 81.6899H66.1494L62.1094 63.6099Z" fill="white"/>
<path d="M76.25 63.6199H80.36V67.2799H76.25V63.6199ZM76.25 68.9499H80.36V81.6999H76.25V68.9499Z" fill="white"/>
<path d="M80.8867 68.9499H85.1567L86.6067 75.8799H86.6567L88.4067 68.9499H91.6567L87.5667 81.6899H84.4667L80.8867 68.9499Z" fill="white"/>
<path d="M98.2064 72.7299C98.2064 71.9699 97.8764 71.2299 97.1364 71.2299C96.1964 71.2299 95.8664 72.1999 95.7864 72.9099L92.2064 72.1699C92.6664 69.6599 94.9464 68.6399 97.2864 68.6399C99.7464 68.6399 102.316 69.7099 102.316 72.5299V79.6399C102.316 81.0899 102.546 81.5199 102.696 81.6999H98.4564C98.3764 81.3499 98.3764 80.9099 98.3264 80.5299C97.5864 81.3899 96.4964 81.9999 95.2264 81.9999C93.0164 81.9999 91.5664 80.5799 91.5664 78.0899C91.5664 74.6599 95.4264 73.6699 98.1964 73.5999V72.7299H98.2064ZM98.2064 75.5799C96.6264 75.7299 95.6964 76.0099 95.6964 77.8899C95.6964 78.7799 96.1564 79.2599 96.8864 79.2599C97.2464 79.2599 97.6964 79.0299 98.2064 78.4499V75.5799Z" fill="white"/>
<path d="M110.689 72.8599C110.309 72.0999 109.779 71.2399 108.759 71.2399C107.919 71.2399 107.539 71.6499 107.539 72.0499C107.539 74.1099 113.779 73.4499 113.779 77.6599C113.779 80.3999 111.699 81.9999 108.669 81.9999C105.829 81.9999 103.979 80.4799 103.309 78.3999L106.459 77.4099C106.939 78.3699 107.479 79.2599 108.669 79.2599C109.429 79.2599 109.969 78.8799 109.969 78.3199C109.969 76.1899 103.719 77.0299 103.719 72.6099C103.719 71.2699 105.039 68.6499 108.669 68.6499C110.729 68.6499 112.809 69.6099 113.549 72.0999L110.679 72.8599H110.689Z" fill="white"/>
<path d="M0.238281 0.669922H56.5283V18.7799H23.8583V37.6799H47.0783V55.7799H23.8583V94.0999H0.238281V0.669922Z" fill="white"/>
<path d="M157.02 106.17V137.14L63.5898 157.08V133.2L82.4898 129.53V107.88L63.5898 103.81V84.2599L157.02 106.17ZM99.0198 111.16V126.25L137.07 119.43V119.17L99.0198 111.17V111.16Z" fill="white"/>
<path d="M63.5898 164.83H87.3398L98.3698 229.91H98.6299L114.37 164.83H134.06L108.47 258.26H84.4598L63.5898 164.83Z" fill="white"/>
<path d="M45.4194 144.28C44.6294 144.28 44.1094 144.76 44.1094 145.62V146.6H46.7494V145.62C46.7494 145.04 46.4994 144.28 45.4094 144.28" fill="white"/>
<path d="M41.1895 144.38C40.1795 144.38 40.0195 145.05 40.0195 145.66V146.59H42.3395V145.71C42.3395 144.75 41.8195 144.37 41.1995 144.37" fill="white"/>
<path d="M43.4284 130C41.3484 130 39.8984 130 39.8984 131.23C39.8984 132.46 41.3484 132.46 43.4284 132.46C45.5084 132.46 46.9585 132.46 46.9585 131.23C46.9585 130 45.5084 130 43.4284 130Z" fill="white"/>
<path d="M31.5781 157.09H55.1981V63.6699H31.5781V157.09ZM38.1481 73.7399L48.7181 71.4799V74.1799L46.5781 74.5999V77.0499L48.7181 77.5099V79.7199L38.1481 77.2399V73.7399ZM38.1481 84.8299H40.1981V87.2199H48.7181V89.8899H40.1981V92.2799H38.1481V84.8299ZM37.1681 76.8299L35.0281 75.4499V73.1799L37.1681 75.3499V76.8299ZM48.7181 149.27H38.1481V144.82C38.1481 142.89 39.2181 141.72 40.6681 141.72C41.9781 141.72 42.9181 142.61 43.1581 143.71H43.1881C43.5281 142.33 44.4081 141.53 45.7981 141.53C47.5781 141.53 48.7081 142.9 48.7081 144.99V149.28L48.7181 149.27ZM43.4381 135.35C40.7381 135.35 37.9481 134.39 37.9481 131.24C37.9481 128.09 40.7381 127.13 43.4381 127.13C46.1381 127.13 48.9281 128.09 48.9281 131.24C48.9281 134.39 46.1381 135.35 43.4381 135.35ZM43.7081 120.89C40.9081 120.89 37.9481 120.03 37.9481 116.78C37.9481 114.15 39.5781 112.98 41.9281 112.98V115.56C40.6781 115.64 39.9081 115.72 39.9081 116.72C39.9081 117.85 41.4981 118.01 43.4581 118.01C45.6281 118.01 46.9781 117.91 46.9781 116.66C46.9781 115.76 45.9281 115.37 45.2581 115.37V116.71H43.4781V113.06H48.8981V114.17L47.9181 114.69C48.5981 115.28 48.9381 116.2 48.9381 117.01C48.9381 119.77 46.7681 120.9 43.7181 120.9M43.4481 106.44C40.7481 106.44 37.9581 105.48 37.9581 102.33C37.9581 99.1799 40.7481 98.2199 43.4481 98.2199C46.1481 98.2199 48.9381 99.1799 48.9381 102.33C48.9381 105.48 46.1481 106.44 43.4481 106.44Z" fill="white"/>
<path d="M40.3984 75.7699L44.6984 76.6699V74.9699L40.3984 75.7399V75.7699Z" fill="white"/>
<path d="M43.4284 101.09C41.3484 101.09 39.8984 101.09 39.8984 102.32C39.8984 103.55 41.3484 103.55 43.4284 103.55C45.5084 103.55 46.9585 103.55 46.9585 102.32C46.9585 101.09 45.5084 101.09 43.4284 101.09Z" fill="white"/>
</svg>
