<svg width="124" height="84" viewBox="0 0 124 84" fill="none" xmlns="http://www.w3.org/2000/svg">
  <path d="M13.7269 46.1758H18.7903V47.808H15.8512V49.5092H17.939V51.1414H15.8512V54.5925H13.7269V46.1758Z" fill="#F7EA1E"/>
  <path d="M20.8417 52.0508C20.8417 52.5705 20.9471 53.4557 21.7011 53.4557C22.1633 53.4557 22.5525 53.1268 22.67 52.6396L23.9551 53.1105C23.87 53.3826 23.2822 54.7305 21.5835 54.7305C19.7552 54.7305 18.9282 53.2526 18.9282 51.6083C18.9282 49.9639 19.8038 48.5104 21.5592 48.5104C23.3146 48.5104 24.0362 50.0939 24.0362 51.6408V52.0427H20.8376L20.8417 52.0508ZM22.2687 50.9181C22.2565 50.3618 22.2079 49.7244 21.5471 49.7244C21.0038 49.7244 20.8376 50.3618 20.8376 50.9181H22.2687Z" fill="#F7EA1E"/>
  <path d="M27.6038 50.4796C27.4254 50.1264 27.1781 49.7244 26.7078 49.7244C26.3186 49.7244 26.1403 49.9152 26.1403 50.102C26.1403 51.0602 29.0429 50.7516 29.0429 52.7127C29.0429 53.9875 28.074 54.7346 26.6713 54.7346C25.3497 54.7346 24.4862 54.0241 24.1822 53.0578L25.6457 52.5949C25.8686 53.0456 26.1159 53.4557 26.6713 53.4557C27.024 53.4557 27.2754 53.277 27.2754 53.0172C27.2754 52.0224 24.3727 52.4122 24.3727 50.3578C24.3727 49.7325 24.9849 48.5145 26.6754 48.5145C27.6321 48.5145 28.601 48.9651 28.9416 50.1223L27.6078 50.4755L27.6038 50.4796Z" fill="#F7EA1E"/>
  <path d="M29.6794 50.0086H28.901V48.6606H29.6794V46.5331H31.5929V48.6606H32.6429V50.0086H31.5929V52.5259C31.5929 52.94 31.5929 53.2486 32.2051 53.2486C32.3591 53.2486 32.5132 53.2242 32.6429 53.1877V54.5803C32.2659 54.6859 31.7105 54.7346 31.297 54.7346C30.2835 54.7346 29.6794 54.2961 29.6794 53.2323V50.0045V50.0086Z" fill="#F7EA1E"/>
  <path d="M33.0929 46.1758H35.0064V47.877H33.0929V46.1758ZM33.0929 48.6606H35.0064V54.5965H33.0929V48.6606Z" fill="#F7EA1E"/>
  <path d="M35.2618 48.6606H37.2442L37.9172 51.8884H37.9415L38.7563 48.6606H40.2685L38.3671 54.5965H36.928L35.2618 48.6606Z" fill="#F7EA1E"/>
  <path d="M43.3252 50.4187C43.3252 50.0654 43.1712 49.7203 42.8306 49.7203C42.3928 49.7203 42.2387 50.171 42.2063 50.4999L40.5442 50.1588C40.755 48.9895 41.8171 48.5145 42.9036 48.5145C44.0468 48.5145 45.2387 49.0098 45.2387 50.3212V53.6302C45.2387 54.3042 45.3441 54.5032 45.4171 54.5884H43.4468C43.4103 54.422 43.4103 54.223 43.386 54.0444C43.0455 54.4463 42.5347 54.7305 41.9468 54.7305C40.9212 54.7305 40.2482 54.0687 40.2482 52.9116C40.2482 51.316 42.0401 50.8531 43.3293 50.8206V50.4187H43.3252ZM43.3252 51.7463C42.5914 51.8154 42.1576 51.9453 42.1576 52.8223C42.1576 53.2364 42.3685 53.4597 42.713 53.4597C42.8793 53.4597 43.0901 53.3542 43.3252 53.0821V51.7463Z" fill="#F7EA1E"/>
  <path d="M46.0981 46.1758H48.0116V54.5925H46.0981V46.1758Z" fill="#F7EA1E"/>
  <path d="M13.7593 55.9283H15.8836V64.3449H13.7593V55.9283Z" fill="#F7EA1E"/>
  <path d="M16.8525 58.409H18.766V59.2007H18.7903C19.1917 58.5958 19.7917 58.2669 20.4768 58.2669C21.243 58.2669 21.7417 58.7866 21.7417 59.6027V64.3409H19.8282V60.1427C19.8282 59.8219 19.7228 59.6108 19.366 59.6108C19.1633 59.6108 19.0011 59.692 18.8714 59.8585L18.766 60.0006V64.3368H16.8525V58.4009V58.409Z" fill="#F7EA1E"/>
  <path d="M22.7998 59.757H22.0214V58.409H22.7998V56.2815H24.7132V58.409H25.7632V59.757H24.7132V62.2743C24.7132 62.6884 24.7132 62.997 25.3254 62.997C25.4795 62.997 25.6335 62.9726 25.7632 62.9361V64.3327C25.3862 64.4383 24.8308 64.487 24.4173 64.487C23.4038 64.487 22.7998 64.0485 22.7998 62.9848V59.757Z" fill="#F7EA1E"/>
  <path d="M27.8389 61.8033C27.8389 62.323 27.9443 63.2081 28.6983 63.2081C29.1605 63.2081 29.5497 62.8752 29.6672 62.392L30.9524 62.867C30.8713 63.1391 30.2794 64.487 28.5808 64.487C26.7524 64.487 25.9254 63.0091 25.9254 61.3648C25.9254 59.7204 26.8011 58.2669 28.5564 58.2669C30.3118 58.2669 31.0334 59.8504 31.0334 61.3973V61.7992H27.8348L27.8389 61.8033ZM29.27 60.6705C29.2578 60.1143 29.2091 59.4768 28.5483 59.4768C28.0051 59.4768 27.8389 60.1143 27.8389 60.6705H29.27Z" fill="#F7EA1E"/>
  <path d="M31.6172 58.409H33.4942V59.3063H33.5186C33.7537 58.5633 34.605 58.2669 35.3591 58.2669V60.2076C35.0996 60.1143 34.8523 60.0412 34.5807 60.0412C33.9442 60.0412 33.7415 60.2076 33.5307 60.504V64.3449H31.6172V58.409Z" fill="#F7EA1E"/>
  <path d="M35.6631 58.409H37.5766V59.2007H37.6009C38.0023 58.5958 38.6023 58.2669 39.2874 58.2669C40.0536 58.2669 40.5523 58.7866 40.5523 59.6027V64.3409H38.6388V60.1427C38.6388 59.8219 38.5334 59.6108 38.1766 59.6108C37.978 59.6108 37.8117 59.692 37.682 59.8585L37.5766 60.0006V64.3368H35.6631V58.4009V58.409Z" fill="#F7EA1E"/>
  <path d="M44.1968 60.1711C44.1968 59.8179 44.0428 59.4728 43.7022 59.4728C43.2644 59.4728 43.1103 59.9234 43.0779 60.2523L41.4117 59.9113C41.6225 58.7419 42.6847 58.2669 43.7711 58.2669C44.9144 58.2669 46.1103 58.7622 46.1103 60.0777V63.3867C46.1103 64.0607 46.2157 64.2637 46.2887 64.3449H44.3184C44.282 64.1785 44.2819 63.9795 44.2576 63.8009C43.9171 64.2028 43.4063 64.487 42.8185 64.487C41.7928 64.487 41.1198 63.8252 41.1198 62.6681C41.1198 61.0725 42.9157 60.6096 44.2009 60.5771V60.1752L44.1968 60.1711ZM44.1968 61.4947C43.4671 61.5637 43.0293 61.6977 43.0293 62.5706C43.0293 62.9848 43.2401 63.2081 43.5847 63.2081C43.7509 63.2081 43.9617 63.1025 44.1968 62.8305V61.4947Z" fill="#F7EA1E"/>
  <path d="M50.0995 60.6218C50.0995 60.3863 50.0873 60.1021 50.0062 59.8788C49.913 59.6433 49.7589 59.4768 49.4508 59.4768C48.8143 59.4768 48.7414 60.2564 48.7414 61.4379C48.7414 62.7737 48.9522 63.2121 49.4508 63.2121C50.1238 63.2121 50.1805 62.526 50.1805 62.0794L51.6684 62.2905C51.5265 63.7318 50.6994 64.4911 49.3089 64.4911C47.586 64.4911 46.69 62.9767 46.69 61.5109C46.69 59.891 47.586 58.271 49.3941 58.271C51.4251 58.271 51.7292 60.0331 51.7292 60.6218H50.0995Z" fill="#F7EA1E"/>
  <path d="M52.317 55.9283H54.2305V57.6295H52.317V55.9283ZM52.317 58.409H54.2305V64.3449H52.317V58.409Z" fill="#F7EA1E"/>
  <path d="M57.4291 58.2669C59.2129 58.2669 60.0966 59.5783 60.0966 61.3526C60.0966 63.1269 59.2453 64.483 57.4291 64.483C55.6129 64.483 54.7616 63.1959 54.7616 61.3526C54.7616 59.5093 55.6453 58.2669 57.4291 58.2669ZM57.4291 63.2812C57.9034 63.2812 58.1142 62.8549 58.1142 61.3526C58.1142 59.9803 57.9723 59.4728 57.4291 59.4728C56.8859 59.4728 56.744 59.9803 56.744 61.3526C56.744 62.8549 56.9548 63.2812 57.4291 63.2812Z" fill="#F7EA1E"/>
  <path d="M60.6602 58.409H62.5736V59.2007H62.598C62.9993 58.5958 63.5993 58.2669 64.2844 58.2669C65.0506 58.2669 65.5493 58.7866 65.5493 59.6027V64.3409H63.6358V60.1427C63.6358 59.8219 63.5304 59.6108 63.1777 59.6108C62.975 59.6108 62.8128 59.692 62.6831 59.8585L62.5777 60.0006V64.3368H60.6642V58.4009L60.6602 58.409Z" fill="#F7EA1E"/>
  <path d="M69.1938 60.1711C69.1938 59.8179 69.0398 59.4728 68.6993 59.4728C68.2614 59.4728 68.1074 59.9234 68.0749 60.2523L66.4128 59.9113C66.6236 58.7419 67.6858 58.2669 68.7722 58.2669C69.9155 58.2669 71.1073 58.7622 71.1073 60.0777V63.3867C71.1073 64.0607 71.2127 64.2637 71.2857 64.3449H69.3155C69.279 64.1785 69.279 63.9795 69.2547 63.8009C68.9141 64.2028 68.4033 64.487 67.8155 64.487C66.7898 64.487 66.1168 63.8252 66.1168 62.6681C66.1168 61.0725 67.9128 60.6096 69.1979 60.5771V60.1752L69.1938 60.1711ZM69.1938 61.4947C68.4641 61.5637 68.0263 61.6977 68.0263 62.5706C68.0263 62.9848 68.2371 63.2081 68.5817 63.2081C68.7479 63.2081 68.9587 63.1025 69.1938 62.8305V61.4947Z" fill="#F7EA1E"/>
  <path d="M71.9668 55.9283H73.8803V64.3449H71.9668V55.9283Z" fill="#F7EA1E"/>
  <path d="M18.4822 74.1095H16.6741V73.5289H16.6498C16.0823 74.073 15.766 74.1786 15.1985 74.1786C13.9458 74.1786 13.358 72.8671 13.358 71.3649C13.358 69.6759 13.8201 68.1736 15.316 68.1736C15.8593 68.1736 16.2241 68.3523 16.5687 68.6933V65.6888H18.4822V74.1095ZM16.5687 69.5094C16.4633 69.3551 16.2485 69.2374 15.9687 69.2374C15.3201 69.2374 15.3444 70.3498 15.3444 71.0441C15.3444 72.2743 15.3688 73.0417 15.8755 73.0417C16.1593 73.0417 16.4309 72.8631 16.5728 72.591V69.5053L16.5687 69.5094Z" fill="#F7EA1E"/>
  <path d="M21.0646 71.5679C21.0646 72.0876 21.17 72.9727 21.9241 72.9727C22.3862 72.9727 22.7754 72.6398 22.893 72.1566L24.1781 72.6316C24.097 72.9037 23.5051 74.2516 21.8065 74.2516C19.9782 74.2516 19.1511 72.7738 19.1511 71.1294C19.1511 69.485 20.0228 68.0315 21.7822 68.0315C23.5416 68.0315 24.2592 69.615 24.2592 71.1619V71.5638H21.0606L21.0646 71.5679ZM22.4957 70.4311C22.4835 69.8748 22.4349 69.2374 21.7741 69.2374C21.2309 69.2374 21.0646 69.8748 21.0646 70.4311H22.4957Z" fill="#F7EA1E"/>
  <path d="M32.0307 65.6929L33.8226 74.1095H31.674L31.3415 72.4083H29.3956L29.0308 74.1095H27.2713L29.2416 65.6929H32.0307ZM29.6916 70.9183H31.0497L30.4375 67.4915H30.4132L29.6916 70.9183Z" fill="#F7EA1E"/>
  <path d="M34.1185 68.1736H35.9956V69.0709H36.0199C36.255 68.3279 37.1064 68.0315 37.8604 68.0315V69.9682C37.6009 69.8748 37.3536 69.8017 37.082 69.8017C36.4455 69.8017 36.2428 69.9682 36.032 70.2605V74.1014H34.1185V68.1655V68.1736Z" fill="#F7EA1E"/>
  <path d="M38.3185 69.5216H37.5401V68.1736H38.3185V66.0461H40.232V68.1736H41.282V69.5216H40.232V72.0389C40.232 72.453 40.232 72.7616 40.8442 72.7616C40.9982 72.7616 41.1523 72.7372 41.282 72.7007V74.0974C40.905 74.2029 40.3496 74.2516 39.9361 74.2516C38.9226 74.2516 38.3185 73.8131 38.3185 72.7494V69.5216Z" fill="#F7EA1E"/>
  <path d="M43.3576 71.5679C43.3576 72.0876 43.463 72.9727 44.2171 72.9727C44.6792 72.9727 45.0684 72.6398 45.186 72.1566L46.4711 72.6316C46.39 72.9037 45.7981 74.2516 44.0995 74.2516C42.2712 74.2516 41.4441 72.7738 41.4441 71.1294C41.4441 69.485 42.3198 68.0315 44.0752 68.0315C45.8306 68.0315 46.5522 69.615 46.5522 71.1619V71.5638H43.3536L43.3576 71.5679ZM44.7887 70.4311C44.7765 69.8748 44.7279 69.2374 44.0671 69.2374C43.5238 69.2374 43.3576 69.8748 43.3576 70.4311H44.7887Z" fill="#F7EA1E"/>
  <path d="M50.1359 69.9926C49.9576 69.6393 49.7103 69.2374 49.24 69.2374C48.8508 69.2374 48.6724 69.4282 48.6724 69.615C48.6724 70.5732 51.5751 70.2646 51.5751 72.2256C51.5751 73.5005 50.6062 74.2476 49.2035 74.2476C47.8819 74.2476 47.0225 73.537 46.7144 72.5707L48.1779 72.1079C48.4008 72.5586 48.6522 72.9727 49.2035 72.9727C49.5562 72.9727 49.8076 72.794 49.8076 72.5342C49.8076 71.5395 46.9049 71.9333 46.9049 69.8748C46.9049 69.2496 47.517 68.0315 49.2076 68.0315C50.1643 68.0315 51.1332 68.4822 51.4738 69.6393L50.14 69.9926H50.1359Z" fill="#F7EA1E"/>
  <path d="M13.0742 75.4412H15.2106L16.2039 81.3041H16.2282L17.6431 75.4412H19.4147L17.112 83.8579H14.9512L13.0742 75.4412Z" fill="#F7EA1E"/>
  <path d="M19.6619 75.4412H21.5754V77.1424H19.6619V75.4412ZM19.6619 77.926H21.5754V83.862H19.6619V77.926Z" fill="#F7EA1E"/>
  <path d="M21.8308 77.926H23.8133L24.4862 81.1539H24.5105L25.3254 77.926H26.8375L24.9362 83.862H23.497L21.8308 77.926Z" fill="#F7EA1E"/>
  <path d="M29.8943 79.6881C29.8943 79.3349 29.7402 78.9898 29.3997 78.9898C28.9618 78.9898 28.8078 79.4405 28.7754 79.7693L27.1132 79.4283C27.324 78.259 28.3862 77.7839 29.4727 77.7839C30.6159 77.7839 31.8078 78.2793 31.8078 79.5907V82.8997C31.8078 83.5737 31.9132 83.7726 31.9861 83.8579H30.0159C29.9794 83.6914 29.9794 83.4925 29.9551 83.3138C29.6145 83.7158 29.1037 84 28.5159 84C27.4902 84 26.8173 83.3382 26.8173 82.1811C26.8173 80.5854 28.6132 80.1226 29.8983 80.0901V79.6881H29.8943ZM29.8943 81.0117C29.1645 81.0808 28.7267 81.2148 28.7267 82.0877C28.7267 82.5018 28.9375 82.7251 29.2821 82.7251C29.4483 82.7251 29.6591 82.6196 29.8943 82.3475V81.0117Z" fill="#F7EA1E"/>
  <path d="M35.7118 79.745C35.5334 79.3918 35.2861 78.9898 34.8158 78.9898C34.4267 78.9898 34.2483 79.1806 34.2483 79.3674C34.2483 80.3256 37.1509 80.017 37.1509 81.9781C37.1509 83.2529 36.182 84 34.7794 84C33.4577 84 32.5983 83.2895 32.2902 82.3232L33.7537 81.8603C33.9767 82.311 34.228 82.7251 34.7794 82.7251C35.132 82.7251 35.3834 82.5465 35.3834 82.2866C35.3834 81.2919 32.4807 81.6857 32.4807 79.6272C32.4807 79.002 33.0929 77.7839 34.7834 77.7839C35.7402 77.7839 36.7091 78.2346 37.0496 79.3918L35.7158 79.745H35.7118Z" fill="#F7EA1E"/>
  <path d="M0 17.8361H26.1767V26.269H10.9823V35.0714H21.7822V43.5043H10.9823V61.3485H0V17.8361Z" fill="#F7EA1E"/>
  <path d="M88.1139 19.8012V34.2228L44.6671 43.5124V32.3917L53.4521 30.6824V20.6011L44.6671 18.705V9.59814L88.1139 19.8053V19.8012ZM61.1426 22.1236V29.1517L78.8383 25.9726V25.8508L61.1426 22.1236Z" fill="#F7EA1E"/>
  <path d="M91.2314 19.7769H102.275L107.403 50.0898H107.525L114.846 19.7769H124L112.101 63.2893H100.933L91.2314 19.7769Z" fill="#F7EA1E"/>
  <path d="M36.1861 37.5481C35.8212 37.5481 35.578 37.7714 35.578 38.1693V38.624H36.8064V38.1693C36.8064 37.9013 36.6888 37.5481 36.1861 37.5481Z" fill="#F7EA1E"/>
  <path d="M34.2199 37.5968C33.7496 37.5968 33.6726 37.9094 33.6726 38.1896V38.624H34.751V38.2139C34.751 37.7633 34.5077 37.5927 34.2199 37.5927" fill="#F7EA1E"/>
  <path d="M35.2618 30.8976C34.2969 30.8976 33.6199 30.8976 33.6199 31.4701C33.6199 32.0425 34.2969 32.0425 35.2618 32.0425C36.2266 32.0425 36.9037 32.0425 36.9037 31.4701C36.9037 30.8976 36.2266 30.8976 35.2618 30.8976Z" fill="#F7EA1E"/>
  <path d="M29.7524 43.5083H40.7347V0H29.7524V43.5083ZM32.805 4.69351L37.7185 3.64194V4.90058L36.7253 5.09546V6.23636L37.7185 6.45154V7.48282L32.805 6.32974V4.69351ZM32.805 9.85393H33.7577V10.9664H37.7185V12.2088H33.7577V13.3213H32.805V9.84987V9.85393ZM32.351 6.13079L31.3578 5.48929V4.43366L32.351 5.44463V6.13485V6.13079ZM32.805 39.8705V37.7957C32.805 36.8984 33.3037 36.3503 33.9807 36.3503C34.5888 36.3503 35.0307 36.7645 35.1402 37.276H35.1523C35.3104 36.6345 35.7199 36.261 36.3685 36.261C37.1955 36.261 37.7226 36.8984 37.7226 37.8729V39.8705H32.805ZM35.2618 33.3864C34.005 33.3864 32.7078 32.9358 32.7078 31.4701C32.7078 30.0044 34.005 29.5537 35.2618 29.5537C36.5185 29.5537 37.8158 30.0044 37.8158 31.4701C37.8158 32.9358 36.5185 33.3864 35.2618 33.3864ZM35.3875 26.6507C34.0821 26.6507 32.7078 26.2487 32.7078 24.7343C32.7078 23.5122 33.4659 22.9641 34.5564 22.9641V24.1659C33.9767 24.2024 33.6158 24.243 33.6158 24.7059C33.6158 25.2296 34.3537 25.3068 35.2658 25.3068C36.2753 25.3068 36.8996 25.2581 36.8996 24.6775C36.8996 24.2552 36.4091 24.0766 36.101 24.0766V24.6978H35.2739V22.9966H37.7915V23.5163L37.3374 23.7599C37.6536 24.036 37.8158 24.4663 37.8158 24.8399C37.8158 26.1269 36.8064 26.6507 35.3875 26.6507ZM35.2618 19.919C34.005 19.919 32.7078 19.4683 32.7078 18.0026C32.7078 16.5369 34.005 16.0862 35.2618 16.0862C36.5185 16.0862 37.8158 16.5369 37.8158 18.0026C37.8158 19.4683 36.5185 19.919 35.2618 19.919Z" fill="#F7EA1E"/>
  <path d="M33.855 5.63952L35.8577 6.06177V5.26599L33.855 5.62328V5.63952Z" fill="#F7EA1E"/>
  <path d="M35.2618 17.4301C34.2969 17.4301 33.6199 17.4301 33.6199 18.0026C33.6199 18.5751 34.2969 18.5751 35.2618 18.5751C36.2266 18.5751 36.9037 18.5751 36.9037 18.0026C36.9037 17.4301 36.2266 17.4301 35.2618 17.4301Z" fill="#F7EA1E"/>
  </svg>
  