<svg width="151" height="100" viewBox="0 0 151 100" fill="none" xmlns="http://www.w3.org/2000/svg">
  <g clip-path="url(#clip0_120_8826)">
  <path d="M0 0H32.5109V10.4583H13.6409V21.3709H27.0543V31.8291H13.6409V53.958H0V0Z" fill="#00C92D"/>
  <path d="M37.0273 0H50.6682V53.9574H37.0273V0Z" fill="#00C92D"/>
  <path d="M109.539 18.6048V36.4893L55.582 48.0087V34.216L66.4946 32.0938V19.5896L55.582 17.2406V5.94873L109.539 18.6048ZM76.0431 21.4843V30.1991L98.0201 26.2585V26.1067L76.0431 21.4837V21.4843Z" fill="#00C92D"/>
  <path d="M109.453 0H123.17L129.535 37.5888H129.687L138.781 0H150.149L135.371 53.9574H121.503L109.453 0Z" fill="#00C92D"/>
  <path d="M55.4297 51.0647H61.7181V53.0872H58.0686V55.198H60.663V57.2205H58.0686V61.5008H55.4303V51.0647H55.4297Z" fill="#00C92D"/>
  <path d="M64.2531 58.35C64.2531 58.9951 64.3851 60.094 65.3232 60.094C65.8951 60.094 66.3783 59.6835 66.5253 59.0828L68.1229 59.6691C68.0203 60.0064 67.2875 61.6772 65.1767 61.6772C62.9046 61.6772 61.8789 59.8449 61.8789 57.8074C61.8789 55.7699 62.9634 53.967 65.1473 53.967C67.3313 53.967 68.2255 55.9313 68.2255 57.8512V58.3494H64.2531V58.35ZM66.0266 56.9426C66.0122 56.2536 65.9533 55.462 65.1323 55.462C64.4584 55.462 64.2531 56.2536 64.2531 56.9426H66.0266Z" fill="#00C92D"/>
  <path d="M72.6526 56.4001C72.433 55.9602 72.1251 55.462 71.5387 55.462C71.055 55.462 70.8354 55.6967 70.8354 55.9313C70.8354 57.1185 74.4411 56.7374 74.4411 59.171C74.4411 60.7542 73.239 61.6772 71.4949 61.6772C69.8535 61.6772 68.7834 60.798 68.4023 59.5959L70.2196 59.0239C70.4981 59.5809 70.806 60.094 71.4949 60.094C71.9348 60.094 72.2427 59.8744 72.2427 59.5515C72.2427 58.32 68.637 58.8037 68.637 56.2536C68.637 55.477 69.3992 53.967 71.4949 53.967C72.682 53.967 73.8841 54.524 74.3091 55.9608L72.6526 56.4007V56.4001Z" fill="#00C92D"/>
  <path d="M75.2174 55.8137H74.25V54.1429H75.2174V51.5046H77.5923V54.1429H78.897V55.8137H77.5923V58.9357C77.5923 59.4488 77.5923 59.8299 78.3545 59.8299C78.5453 59.8299 78.7355 59.8005 78.897 59.7567V61.4864C78.4277 61.6184 77.7393 61.6766 77.2262 61.6766C75.9658 61.6766 75.218 61.1341 75.218 59.8149V55.8131L75.2174 55.8137Z" fill="#00C92D"/>
  <path d="M79.4375 51.0647H81.8123V53.1754H79.4375V51.0647ZM79.4375 54.1429H81.8123V61.5008H79.4375V54.1429Z" fill="#00C92D"/>
  <path d="M82.1217 54.1429H84.5841L85.4195 58.1447H85.4489L86.4602 54.1429H88.3363L85.9765 61.5008H84.188L82.1211 54.1429H82.1217Z" fill="#00C92D"/>
  <path d="M92.1189 56.3268C92.1189 55.8869 91.9287 55.462 91.5032 55.462C90.9607 55.462 90.7704 56.019 90.7266 56.4295L88.6597 56.0046C88.9237 54.5534 90.2429 53.967 91.5914 53.967C93.0132 53.967 94.4938 54.5828 94.4938 56.2098V60.3143C94.4938 61.1497 94.6258 61.3987 94.7134 61.5014H92.2654C92.2216 61.2961 92.2216 61.0471 92.1922 60.8274C91.7673 61.3255 91.1371 61.6778 90.4037 61.6778C89.1284 61.6778 88.293 60.8568 88.293 59.4206C88.293 57.4419 90.5207 56.87 92.1189 56.8262V56.328V56.3268ZM92.1189 57.9683C91.2103 58.0565 90.6678 58.2173 90.6678 59.3024C90.6678 59.8155 90.9318 60.094 91.3568 60.094C91.562 60.094 91.8261 59.962 92.1189 59.6247V57.9683Z" fill="#00C92D"/>
  <path d="M95.5469 51.0647H97.9217V61.5008H95.5469V51.0647Z" fill="#00C92D"/>
  <path d="M55.4766 63.165H58.1148V73.6011H55.4766V63.165Z" fill="#00C92D"/>
  <path d="M59.3131 66.2432H61.6879V67.2251H61.7173C62.2154 66.4773 62.9632 66.0674 63.8137 66.0674C64.7667 66.0674 65.3819 66.7125 65.3819 67.7238V73.6017H63.007V68.3984C63.007 68.0029 62.875 67.7388 62.4351 67.7388C62.186 67.7388 61.9808 67.8414 61.8193 68.0467L61.6873 68.2225V73.6017H59.3125V66.2438L59.3131 66.2432Z" fill="#00C92D"/>
  <path d="M66.6862 67.914H65.7188V66.2432H66.6862V63.6049H69.061V66.2432H70.3657V67.914H69.061V71.036C69.061 71.5491 69.061 71.9302 69.8232 71.9302C70.0141 71.9302 70.2043 71.9008 70.3657 71.857V73.5867C69.8964 73.7187 69.208 73.7769 68.6949 73.7769C67.4346 73.7769 66.6868 73.2344 66.6868 71.9152V67.9134L66.6862 67.914Z" fill="#00C92D"/>
  <path d="M72.9328 70.4497C72.9328 71.0948 73.0648 72.1937 74.0029 72.1937C74.5748 72.1937 75.0579 71.7832 75.205 71.1825L76.8026 71.7688C76.7 72.1061 75.9672 73.7769 73.8564 73.7769C71.5843 73.7769 70.5586 71.9446 70.5586 69.9071C70.5586 67.8696 71.6431 66.0667 73.827 66.0667C76.011 66.0667 76.9052 68.0311 76.9052 69.9509V70.4491H72.9328V70.4497ZM74.7063 69.0423C74.6919 68.3533 74.633 67.5617 73.812 67.5617C73.1381 67.5617 72.9328 68.3533 72.9328 69.0423H74.7063Z" fill="#00C92D"/>
  <path d="M77.61 66.2432H79.9404V67.3571H79.9698C80.2627 66.4334 81.3183 66.0674 82.2564 66.0674V68.471C81.9341 68.3539 81.6262 68.2657 81.2889 68.2657C80.4973 68.2657 80.2483 68.471 79.9842 68.8371V73.6011H77.6094V66.2432H77.61Z" fill="#00C92D"/>
  <path d="M82.6217 66.2432H84.9965V67.2251H85.0259C85.524 66.4773 86.2718 66.0674 87.1222 66.0674C88.0753 66.0674 88.6904 66.7125 88.6904 67.7238V73.6017H86.3156V68.3984C86.3156 68.0029 86.1836 67.7388 85.7437 67.7388C85.4946 67.7388 85.2894 67.8414 85.1279 68.0467L84.9959 68.2225V73.6017H82.6211V66.2438L82.6217 66.2432Z" fill="#00C92D"/>
  <path d="M93.2166 68.4272C93.2166 67.9872 93.0264 67.5623 92.6009 67.5623C92.0583 67.5623 91.8681 68.1193 91.8243 68.5298L89.7573 68.1049C90.0214 66.6537 91.3405 66.0674 92.6891 66.0674C94.1108 66.0674 95.5914 66.6831 95.5914 68.3101V72.4146C95.5914 73.25 95.7235 73.4991 95.8111 73.6017H93.363C93.3192 73.3964 93.3192 73.1474 93.2898 72.9277C92.8649 73.4258 92.2348 73.7781 91.5014 73.7781C90.226 73.7781 89.3906 72.9571 89.3906 71.5209C89.3906 69.5422 91.6184 68.9703 93.2166 68.9265V68.4284V68.4272ZM93.2166 70.0686C92.308 70.1568 91.7654 70.3176 91.7654 71.4027C91.7654 71.9159 92.0295 72.1943 92.4544 72.1943C92.6597 72.1943 92.9237 72.0623 93.2166 71.725V70.0686Z" fill="#00C92D"/>
  <path d="M100.533 68.9841C100.533 68.6912 100.519 68.3389 100.416 68.0605C100.299 67.7676 100.108 67.5623 99.7274 67.5623C98.9358 67.5623 98.8481 68.5298 98.8481 69.9954C98.8481 71.6518 99.1122 72.1937 99.7274 72.1937C100.563 72.1937 100.636 71.3433 100.636 70.7864L102.483 71.0504C102.307 72.8389 101.281 73.7769 99.5509 73.7769C97.4108 73.7769 96.2969 71.9008 96.2969 70.083C96.2969 68.0749 97.4108 66.0667 99.6535 66.0667C102.175 66.0667 102.556 68.2507 102.556 68.9835H100.533V68.9841Z" fill="#00C92D"/>
  <path d="M103.289 63.165H105.664V65.2758H103.289V63.165ZM103.289 66.2432H105.664V73.6011H103.289V66.2432Z" fill="#00C92D"/>
  <path d="M109.618 66.0674C111.831 66.0674 112.93 67.6944 112.93 69.8927C112.93 72.0911 111.875 73.7769 109.618 73.7769C107.36 73.7769 106.305 72.1793 106.305 69.8927C106.305 67.6061 107.404 66.0674 109.618 66.0674ZM109.618 72.2819C110.204 72.2819 110.468 71.7544 110.468 69.8927C110.468 68.1925 110.292 67.5623 109.618 67.5623C108.943 67.5623 108.767 68.1925 108.767 69.8927C108.767 71.7544 109.031 72.2819 109.618 72.2819Z" fill="#00C92D"/>
  <path d="M113.633 66.2432H116.008V67.2251H116.038C116.536 66.4773 117.284 66.0674 118.134 66.0674C119.087 66.0674 119.702 66.7125 119.702 67.7238V73.6017H117.327V68.3984C117.327 68.0029 117.195 67.7388 116.755 67.7388C116.506 67.7388 116.301 67.8414 116.14 68.0467L116.008 68.2225V73.6017H113.633V66.2438L113.633 66.2432Z" fill="#00C92D"/>
  <path d="M124.232 68.4272C124.232 67.9872 124.042 67.5623 123.616 67.5623C123.074 67.5623 122.884 68.1193 122.84 68.5298L120.773 68.1049C121.037 66.6537 122.356 66.0674 123.705 66.0674C125.126 66.0674 126.607 66.6831 126.607 68.3101V72.4146C126.607 73.25 126.739 73.4991 126.827 73.6017H124.379C124.335 73.3964 124.335 73.1474 124.305 72.9277C123.881 73.4258 123.25 73.7781 122.517 73.7781C121.242 73.7781 120.406 72.9571 120.406 71.5209C120.406 69.5422 122.634 68.9703 124.232 68.9265V68.4284V68.4272ZM124.232 70.0686C123.324 70.1568 122.781 70.3176 122.781 71.4027C122.781 71.9159 123.045 72.1943 123.47 72.1943C123.675 72.1943 123.939 72.0623 124.232 71.725V70.0686Z" fill="#00C92D"/>
  <path d="M127.664 63.165H130.039V73.6011H127.664V63.165Z" fill="#00C92D"/>
  <path d="M61.3382 85.7014H59.0954V84.983H59.066C58.3626 85.6576 57.9665 85.789 57.2631 85.789C55.7094 85.789 54.9766 84.162 54.9766 82.3003C54.9766 80.2046 55.5485 78.3429 57.4096 78.3429C58.0836 78.3429 58.5385 78.5626 58.9634 78.9881V75.2647H61.3382V85.7008V85.7014ZM58.9634 79.9993C58.8313 79.8091 58.5679 79.662 58.2156 79.662C57.4096 79.662 57.439 81.04 57.439 81.9048C57.439 83.4292 57.4684 84.3822 58.0986 84.3822C58.4503 84.3822 58.7875 84.1626 58.9634 83.8253V79.9999V79.9993Z" fill="#00C92D"/>
  <path d="M64.5344 82.5499C64.5344 83.1951 64.6664 84.294 65.6044 84.294C66.1764 84.294 66.6595 83.8835 66.8065 83.2827L68.4042 83.8691C68.3015 84.2064 67.5687 85.8772 65.458 85.8772C63.1858 85.8772 62.1602 84.0449 62.1602 82.0074C62.1602 79.9699 63.2446 78.167 65.4286 78.167C67.6126 78.167 68.5068 80.1313 68.5068 82.0512V82.5493H64.5344V82.5499ZM66.3078 81.1426C66.2934 80.4536 66.2346 79.662 65.4136 79.662C64.7396 79.662 64.5344 80.4536 64.5344 81.1426H66.3078Z" fill="#00C92D"/>
  <path d="M74.6785 75.2647H78.1378L80.3656 85.7008H77.6979L77.2874 83.59H74.8687L74.4144 85.7008H72.2305L74.6785 75.2647ZM75.2354 81.7434H76.9213L76.1591 77.4925H76.1297L75.2354 81.7434Z" fill="#00C92D"/>
  <path d="M80.7154 78.3429H83.0458V79.4568H83.0753C83.3681 78.5331 84.4238 78.167 85.3618 78.167V80.5706C85.0396 80.4536 84.7317 80.3654 84.3944 80.3654C83.6028 80.3654 83.3537 80.5706 83.0897 80.9373V85.7014H80.7148V78.3435L80.7154 78.3429Z" fill="#00C92D"/>
  <path d="M85.9206 80.0143H84.9531V78.3435H85.9206V75.7052H88.2954V78.3435H89.6001V80.0143H88.2954V83.1363C88.2954 83.6494 88.2954 84.0305 89.0576 84.0305C89.2484 84.0305 89.4387 84.0011 89.6001 83.9573V85.687C89.1308 85.819 88.4424 85.8772 87.9293 85.8772C86.669 85.8772 85.9212 85.3347 85.9212 84.0155V80.0137L85.9206 80.0143Z" fill="#00C92D"/>
  <path d="M92.1633 82.5499C92.1633 83.1951 92.2953 84.294 93.2333 84.294C93.8053 84.294 94.2884 83.8835 94.4354 83.2827L96.0331 83.8691C95.9304 84.2064 95.1976 85.8772 93.0869 85.8772C90.8147 85.8772 89.7891 84.0449 89.7891 82.0074C89.7891 79.9699 90.8735 78.167 93.0575 78.167C95.2415 78.167 96.1357 80.1313 96.1357 82.0512V82.5493H92.1633V82.5499ZM93.9367 81.1426C93.9223 80.4536 93.8635 79.662 93.0425 79.662C92.3685 79.662 92.1633 80.4536 92.1633 81.1426H93.9367Z" fill="#00C92D"/>
  <path d="M100.563 80.6C100.343 80.1601 100.035 79.662 99.4489 79.662C98.9652 79.662 98.7455 79.8967 98.7455 80.1313C98.7455 81.3184 102.351 80.9373 102.351 83.371C102.351 84.9542 101.149 85.8772 99.4051 85.8772C97.7637 85.8772 96.6936 84.998 96.3125 83.7959L98.1298 83.2239C98.4082 83.7809 98.7161 84.294 99.4051 84.294C99.845 84.294 100.153 84.0743 100.153 83.7515C100.153 82.5199 96.5472 83.0037 96.5472 80.4536C96.5472 79.677 97.3094 78.167 99.4051 78.167C100.592 78.167 101.794 78.724 102.219 80.1607L100.563 80.6006V80.6Z" fill="#00C92D"/>
  <path d="M105.957 75.2647H108.61L109.842 82.535H109.871L111.63 75.2647H113.829L110.971 85.7008H108.289L105.958 75.2647H105.957Z" fill="#00C92D"/>
  <path d="M114.117 75.2647H116.492V77.3755H114.117V75.2647ZM114.117 78.3429H116.492V85.7008H114.117V78.3429Z" fill="#00C92D"/>
  <path d="M116.801 78.3429H119.264L120.099 82.3447H120.129L121.14 78.3429H123.016L120.656 85.7008H118.868L116.801 78.3429H116.801Z" fill="#00C92D"/>
  <path d="M126.799 80.5268C126.799 80.0869 126.608 79.662 126.183 79.662C125.64 79.662 125.45 80.2189 125.406 80.6295L123.339 80.2045C123.603 78.7534 124.923 78.167 126.271 78.167C127.693 78.167 129.173 78.7828 129.173 80.4098V84.5136C129.173 85.3491 129.305 85.5981 129.393 85.7008H126.945C126.901 85.4955 126.901 85.2464 126.872 85.0268C126.447 85.5249 125.817 85.8772 125.083 85.8772C123.808 85.8772 122.973 85.0562 122.973 83.62C122.973 81.6413 125.2 81.0694 126.799 81.0256V80.5274V80.5268ZM126.799 82.1682C125.89 82.2565 125.347 82.4173 125.347 83.5024C125.347 84.0155 125.612 84.294 126.036 84.294C126.242 84.294 126.506 84.162 126.799 83.8247V82.1682Z" fill="#00C92D"/>
  <path d="M134.012 80.6C133.792 80.1601 133.484 79.662 132.898 79.662C132.414 79.662 132.195 79.8967 132.195 80.1313C132.195 81.3184 135.8 80.9373 135.8 83.371C135.8 84.9542 134.598 85.8772 132.854 85.8772C131.213 85.8772 130.143 84.998 129.762 83.7959L131.579 83.2239C131.857 83.7809 132.165 84.294 132.854 84.294C133.294 84.294 133.602 84.0743 133.602 83.7515C133.602 82.5199 129.996 83.0037 129.996 80.4536C129.996 79.677 130.759 78.167 132.854 78.167C134.041 78.167 135.244 78.724 135.668 80.1607L134.012 80.6006V80.6Z" fill="#00C92D"/>
  <path d="M55.4303 87.365H59.8276C61.7331 87.365 62.8908 88.4201 62.8908 89.8568C62.8908 91.1466 62.0116 92.0846 60.9265 92.3193V92.3487C62.2894 92.686 63.081 93.5508 63.081 94.9287C63.081 96.6878 61.7325 97.8017 59.6656 97.8017H55.4297V87.3656L55.4303 87.365ZM58.0686 91.4982H58.9334C59.8864 91.4982 60.2525 90.9851 60.2525 90.3694C60.2525 89.3725 59.593 89.2117 58.9922 89.2117H58.0686V91.4982ZM58.0686 95.8662H59.036C59.608 95.8662 60.3551 95.6171 60.3551 94.547C60.3551 93.7704 59.8858 93.2573 59.036 93.2573H58.0686V95.8662Z" fill="#00C92D"/>
  <path d="M66.555 90.2673C68.7684 90.2673 69.8679 91.8944 69.8679 94.0927C69.8679 96.2911 68.8128 97.9769 66.555 97.9769C64.2973 97.9769 63.2422 96.3793 63.2422 94.0927C63.2422 91.8061 64.3417 90.2673 66.555 90.2673ZM66.555 96.4819C67.1414 96.4819 67.4055 95.9544 67.4055 94.0927C67.4055 92.3925 67.2296 91.7623 66.555 91.7623C65.8805 91.7623 65.7046 92.3925 65.7046 94.0927C65.7046 95.9544 65.9687 96.4819 66.555 96.4819Z" fill="#00C92D"/>
  <path d="M77.1963 91.7035C77.0936 91.6009 76.9616 91.4982 76.8296 91.4394C76.6831 91.3662 76.5367 91.3224 76.3602 91.3224C76.1838 91.3224 76.023 91.3956 75.9647 91.4838C76.2432 91.8061 76.3164 92.2604 76.3164 92.6859C76.3164 94.1371 74.7188 94.8555 73.4141 94.8555C72.9598 94.8555 72.6663 94.7967 72.4028 94.7385C72.344 94.8117 72.1538 95.0169 72.1538 95.1634C72.1538 95.6909 72.7989 95.6909 73.6344 95.6909C75.0417 95.6909 76.9322 95.8668 76.9322 97.7134C76.9322 99.2234 75.4516 100 73.2827 100C72.4472 100 69.8672 99.883 69.8672 98.4756C69.8672 97.684 70.5856 97.3029 71.2595 97.1859V97.1565C70.6732 96.9662 70.2189 96.629 70.2189 95.9544C70.2189 95.236 71.0399 94.6941 71.655 94.547V94.5176C70.7314 94.1221 70.2771 93.4181 70.2771 92.5827C70.2771 90.9119 72.08 90.2667 73.2821 90.2667C73.9854 90.2667 74.7626 90.4282 75.3196 90.7943C75.4954 90.3838 76.4923 89.8268 77.1957 89.8268V91.7029L77.1963 91.7035ZM71.7145 98.1233C71.7145 98.7241 72.8139 98.7685 73.2827 98.7685C73.8396 98.7685 74.9097 98.7685 74.9097 98.1233C74.9097 97.4782 73.7226 97.4494 73.2827 97.4494C72.9454 97.4494 71.7145 97.4494 71.7145 98.1233ZM72.4767 92.6265C72.4767 93.1541 72.6669 93.7992 73.2827 93.7992C73.9422 93.7992 74.1181 93.1253 74.1181 92.5239C74.1181 91.9226 73.8984 91.3218 73.2827 91.3218C72.6231 91.3218 72.4767 92.0696 72.4767 92.6265Z" fill="#00C92D"/>
  <path d="M80.3753 90.2673C82.5887 90.2673 83.6882 91.8944 83.6882 94.0927C83.6882 96.2911 82.6331 97.9769 80.3753 97.9769C78.1176 97.9769 77.0625 96.3793 77.0625 94.0927C77.0625 91.8061 78.162 90.2673 80.3753 90.2673ZM80.3753 96.4819C80.9617 96.4819 81.2258 95.9544 81.2258 94.0927C81.2258 92.3925 81.0499 91.7623 80.3753 91.7623C79.7008 91.7623 79.5249 92.3925 79.5249 94.0927C79.5249 95.9544 79.789 96.4819 80.3753 96.4819Z" fill="#00C92D"/>
  <path d="M84.5846 92.114H83.6172V90.4432H84.5846V87.8049H86.9594V90.4432H88.2642V92.114H86.9594V95.236C86.9594 95.7491 86.9594 96.1302 87.7216 96.1302C87.9125 96.1302 88.1027 96.1008 88.2642 96.057V97.7867C87.7949 97.9187 87.1065 97.9769 86.5934 97.9769C85.333 97.9769 84.5852 97.4344 84.5852 96.1152V92.114H84.5846Z" fill="#00C92D"/>
  <path d="M92.2791 92.6271C92.2791 92.1872 92.0889 91.7623 91.6633 91.7623C91.1208 91.7623 90.9306 92.3193 90.8867 92.7298L88.8198 92.3049C89.0839 90.8537 90.403 90.2673 91.7516 90.2673C93.1733 90.2673 94.6539 90.8831 94.6539 92.5101V96.614C94.6539 97.4494 94.7859 97.6984 94.8736 97.8011H92.4255C92.3817 97.5958 92.3817 97.3467 92.3523 97.1271C91.9274 97.6252 91.2972 97.9775 90.5639 97.9775C89.2885 97.9775 88.4531 97.1565 88.4531 95.7203C88.4531 93.7416 90.6809 93.1697 92.2791 93.1259V92.6277V92.6271ZM92.015 89.2999H90.5495L91.9124 87.1891H94.1552L92.015 89.2999ZM92.2791 94.2686C91.3705 94.3568 90.8279 94.5176 90.8279 95.6027C90.8279 96.1158 91.092 96.3943 91.5169 96.3943C91.7222 96.3943 91.9862 96.2623 92.2791 95.925V94.2686Z" fill="#00C92D"/>
  <path d="M99.2266 96.0132C100.34 95.002 103.829 92.0702 103.829 90.3556C103.829 89.7842 103.58 89.2417 102.935 89.2417C102.143 89.2417 101.835 90.0771 101.675 90.7073L99.4174 90.1353C99.8717 88.3325 101.323 87.2186 103.17 87.2186C105.016 87.2186 106.467 88.2004 106.467 90.1503C106.467 92.6278 103.785 94.2104 102.158 95.5739V95.6033H106.336V97.8017H99.2272V96.0132H99.2266Z" fill="#00C92D"/>
  <path d="M110.555 87.2186C113.545 87.2186 114.22 89.9301 114.22 92.5833C114.22 95.5001 113.193 97.9481 110.555 97.9481C107.565 97.9481 106.891 95.5001 106.891 92.5833C106.891 89.9301 107.565 87.2186 110.555 87.2186ZM109.617 94.1665C109.617 95.7642 109.954 96.1891 110.555 96.1891C111.156 96.1891 111.493 95.7642 111.493 94.1665V91.0007C111.493 89.4031 111.156 88.9782 110.555 88.9782C109.954 88.9782 109.617 89.4031 109.617 91.0007V94.1665Z" fill="#00C92D"/>
  <path d="M114.648 96.0132C115.762 95.002 119.251 92.0702 119.251 90.3556C119.251 89.7842 119.002 89.2417 118.357 89.2417C117.565 89.2417 117.257 90.0771 117.096 90.7073L114.839 90.1353C115.294 88.3325 116.745 87.2186 118.591 87.2186C120.438 87.2186 121.889 88.2004 121.889 90.1503C121.889 92.6278 119.207 94.2104 117.58 95.5739V95.6033H121.758V97.8017H114.649V96.0132H114.648Z" fill="#00C92D"/>
  <path d="M125.921 95.251H122.227V93.5802L125.95 87.3656H128.486V93.5802H129.731V95.251H128.471V97.8017H125.921V95.251ZM126.023 90.1797H125.994L124.074 93.5802H126.023V90.1797Z" fill="#00C92D"/>
  </g>
  <defs>
  <clipPath id="clip0_120_8826">
  <rect width="150.148" height="100" fill="white"/>
  </clipPath>
  </defs>
  </svg>
  